<svg width="87" height="87" viewBox="0 0 87 87" fill="none" xmlns="http://www.w3.org/2000/svg">
<circle cx="43.5" cy="43.5" r="43.5" fill="#2FC850"/>
<path fill-rule="evenodd" clip-rule="evenodd" d="M58.7217 28.262C56.7357 26.2751 54.3764 24.7006 51.7795 23.6292C49.1826 22.5578 46.3994 22.0106 43.5902 22.0191C31.8006 22.0191 22.2033 31.5685 22.1985 43.3082C22.1933 47.0463 23.1787 50.7191 25.0543 53.9527L22.0192 64.9808L33.359 62.0205C36.4979 63.7209 40.0116 64.6109 43.5815 64.6097H43.5902C55.3787 64.6097 64.9751 55.0593 64.9808 43.3206C64.988 40.521 64.4383 37.7479 63.3637 35.1627C62.2892 32.5774 60.7112 30.2317 58.7217 28.262ZM43.5902 61.0164H43.5825C40.4 61.0174 37.2755 60.1657 34.5337 58.55L33.8845 58.1664L27.1554 59.9232L28.9516 53.3936L28.5287 52.7223C26.7492 49.9051 25.8064 46.6404 25.81 43.3082C25.81 33.5526 33.7895 25.6153 43.5969 25.6153C48.3015 25.6069 52.8169 27.4675 56.1498 30.788C59.4827 34.1085 61.3602 38.6169 61.3694 43.3216C61.3655 53.0781 53.3898 61.0164 43.5902 61.0164ZM53.3419 47.7645C52.8077 47.4979 50.1773 46.211 49.6901 46.0335C49.203 45.8561 48.8434 45.767 48.4876 46.3001C48.1318 46.8333 47.1067 48.0263 46.795 48.3859C46.4834 48.7455 46.1717 48.7848 45.6375 48.5182C45.1034 48.2516 43.3801 47.6906 41.3385 45.8782C39.7495 44.4676 38.6774 42.7261 38.3657 42.1938C38.0541 41.6616 38.3322 41.373 38.5997 41.1083C38.8404 40.8695 39.1338 40.4869 39.4014 40.1762C39.6689 39.8655 39.7581 39.643 39.9355 39.2882C40.1129 38.9334 40.0247 38.6227 39.8914 38.357C39.7581 38.0914 38.6889 35.4725 38.2439 34.4071C37.8095 33.3695 37.3693 33.5104 37.0414 33.4941C36.7297 33.4788 36.3701 33.4749 36.0163 33.4749C35.7457 33.482 35.4796 33.5447 35.2344 33.6592C34.9892 33.7737 34.7703 33.9375 34.5912 34.1405C34.1012 34.6736 32.7203 35.9625 32.7203 38.5785C32.7203 41.1946 34.6382 43.7263 34.9029 44.0811C35.1676 44.4359 38.6716 49.809 44.0332 52.1134C45.0288 52.5397 46.046 52.9136 47.0808 53.2335C48.361 53.6381 49.5262 53.5816 50.4468 53.4444C51.4738 53.292 53.6113 52.1575 54.0553 50.9147C54.4993 49.6719 54.5003 48.6074 54.367 48.3859C54.2337 48.1644 53.877 48.0301 53.3419 47.7645Z" fill="white"/>
</svg>
